<?xml version="1.0" standalone="no"?><!DOCTYPE svg PUBLIC "-//W3C//DTD SVG 1.1//EN" "http://www.w3.org/Graphics/SVG/1.1/DTD/svg11.dtd"><svg t="1599717661011" class="icon" viewBox="0 0 1024 1024" version="1.1" xmlns="http://www.w3.org/2000/svg" p-id="3594" xmlns:xlink="http://www.w3.org/1999/xlink" width="128" height="128"><defs><style type="text/css"></style></defs><path d="M512 1024c282.7776 0 512-229.2224 512-512S794.7776 0 512 0 0 229.2224 0 512s229.2224 512 512 512z m-77.6192-733.6704l194.6624 198.4a29.7472 29.7472 0 0 1 6.9632 8.448 30.208 30.208 0 0 1-8.832 39.7312l-193.0752 196.7616a29.0048 29.0048 0 0 1-41.472 0 30.208 30.208 0 0 1 0-42.2656l176.1792-179.5328-175.9232-179.2768a30.208 30.208 0 0 1 0-42.2656 29.0048 29.0048 0 0 1 41.472 0z" p-id="3595"></path></svg>